<svg id="Layer_1" data-name="Layer 1" xmlns="http://www.w3.org/2000/svg" viewBox="0 0 97.54 39.31"><defs><style>.cls-1{font-size:26.16px;font-family:BodoniMT-Bold, Bodoni MT;font-weight:700;letter-spacing:0.04em;}.cls-1,.cls-2,.cls-5{fill:#524740;}.cls-2{font-size:31.4px;font-family:HighTowerText-Reg, High Tower Text;letter-spacing:0.05em;}.cls-3{fill:#514740;}.cls-4{fill:#f2ab21;}.cls-5{font-size:7.69px;font-family:BodoniBlack-Regular, Bodoni Black;letter-spacing:0.01em;}</style></defs><text class="cls-1" transform="translate(50.8 30.97)">asal</text><text class="cls-2" transform="translate(34.93 30.98)">p</text><path class="cls-3" d="M17.56,21.11A3.88,3.88,0,0,1,12.07,21l-2.5-2.5V35.08a4.19,4.19,0,0,1-8.37,0V9.38A4.19,4.19,0,0,1,7.73,5.92h0c.1.08.2.14.29.22l.63.63,7.47,7.47,1.38,1.38A3.88,3.88,0,0,1,17.56,21.11Z" transform="translate(-1.2 -5.21)"/><path class="cls-4" d="M35.45,9.33V35a4.19,4.19,0,0,1-6.53,3.46h0l-.29-.22L28,37.63,20.47,30.1l-2.25-2.25a3.83,3.83,0,1,1,5.42-5.42l1.6,1.6.11.11,1.73,1.73V9.33a4.19,4.19,0,0,1,8.37,0Z" transform="translate(-1.2 -5.21)"/><polygon class="cls-4" points="24.15 18.92 24.15 18.93 24.04 18.82 24.15 18.92"/><text class="cls-5" transform="translate(35.81 16.99)">aulo</text></svg>