<svg id="Layer_1" data-name="Layer 1" xmlns="http://www.w3.org/2000/svg" viewBox="0 0 140.19 64.34"><defs><style>.cls-1{font-size:34.03px;font-family:BodoniMT-Bold, Bodoni MT;font-weight:700;letter-spacing:0.04em;}.cls-1,.cls-2,.cls-5{fill:#524740;}.cls-2{font-size:40.84px;font-family:HighTowerText-Reg, High Tower Text;letter-spacing:0.05em;}.cls-3{fill:#514740;}.cls-4{fill:#f2ab21;}.cls-5{font-size:10px;font-family:BodoniBlack-Regular, Bodoni Black;letter-spacing:0em;}</style></defs><text class="cls-1" transform="translate(79.39 53.49)">asal</text><text class="cls-2" transform="translate(58.75 53.51)">p</text><path class="cls-3" d="M57.07,43a6.55,6.55,0,0,1-9.27-.12l-4.24-4.23v28a7.07,7.07,0,0,1-14.14,0V23.2a7.08,7.08,0,0,1,11-5.84s0,0,0,0a5.85,5.85,0,0,1,.49.38L42,18.8,54.62,31.42,57,33.74A6.56,6.56,0,0,1,57.07,43Z" transform="translate(-29.42 -16.16)"/><path class="cls-4" d="M87.28,23.11V66.52a7.08,7.08,0,0,1-11,5.85s0,0,0,0-.33-.24-.49-.38l-1.06-1.06L62,58.21,58.17,54.4a6.48,6.48,0,1,1,9.16-9.15L70,48l.19.19,2.92,2.92V23.11a7.07,7.07,0,0,1,14.14,0Z" transform="translate(-29.42 -16.16)"/><polygon class="cls-4" points="40.79 31.97 40.79 31.98 40.61 31.79 40.79 31.97"/><text class="cls-5" transform="translate(59.31 34.34)">aya</text></svg>