<svg id="Layer_1" data-name="Layer 1" xmlns="http://www.w3.org/2000/svg" viewBox="0 0 174.59 173.25"><defs><style>.cls-1{fill:#514740;}.cls-2{fill:#f2ab21;}</style></defs><path class="cls-1" d="M96.13,94.43a19.77,19.77,0,0,1-28-.35L55.38,81.31v84.33a21.34,21.34,0,0,1-42.67,0v-131A21.36,21.36,0,0,1,46,17s0,0,0,0c.5.38,1,.73,1.48,1.13l3.2,3.2L88.75,59.42l7,7A19.77,19.77,0,0,1,96.13,94.43Z" transform="translate(-12.71 -13.37)"/><path class="cls-2" d="M187.29,34.36v131A21.36,21.36,0,0,1,154,183s0,0,0,0c-.5-.38-1-.73-1.48-1.13l-3.2-3.2-38.37-38.39L99.46,128.79a19.54,19.54,0,1,1,27.63-27.63l8.16,8.16.56.55,8.81,8.82V34.36a21.34,21.34,0,0,1,42.67,0Z" transform="translate(-12.71 -13.37)"/><polygon class="cls-2" points="123.1 96.48 123.1 96.5 122.55 95.95 123.1 96.48"/></svg>